<?xml version="1.0" encoding="UTF-8" standalone="no"?>
<!DOCTYPE svg PUBLIC "-//W3C//DTD SVG 1.1//EN" "http://www.w3.org/Graphics/SVG/1.1/DTD/svg11.dtd">
<svg width="100%" height="100%" viewBox="0 0 512 512" version="1.1" xmlns="http://www.w3.org/2000/svg" xmlns:xlink="http://www.w3.org/1999/xlink" xml:space="preserve" xmlns:serif="http://www.serif.com/" style="fill-rule:evenodd;clip-rule:evenodd;stroke-linejoin:round;stroke-miterlimit:2;">
    <g transform="matrix(0.5,0,0,0.5,0,0)">
        <rect x="-0" y="-0" width="1024" height="1024" style="fill:white;fill-rule:nonzero;"/>
    </g>
    <g transform="matrix(0.5,0,0,0.5,0,0)">
        <path d="M498.751,92.718L499.961,92.662C517.76,91.921 535.775,92.864 553.5,94.454C633.047,101.585 709.077,129.89 771.302,180.466C776.829,184.959 782.457,189.241 787.697,194.078C817.179,221.292 843.406,251.872 864.354,286.177C900.852,345.947 923.068,416.506 925.789,486.546L925.768,514.429C925.697,519.5 926.009,524.573 925.69,529.638C924.888,542.365 923.057,555.131 921.063,567.719L916.675,593.181C913.913,605.806 910.185,618.235 906.259,630.541C887.185,690.314 856.1,745.303 813.285,791.34C738.877,871.348 633.185,912.858 525.091,917.057L519.78,917.362C457.123,919.965 394.424,907.431 337.212,882.072C317.514,873.341 298.679,863.462 280.75,851.474C275.3,847.83 269.458,844.454 264.2,840.563C252.613,831.99 241.79,822.743 231.19,812.983C181.683,767.399 145.29,708.134 122.72,645.025C107.976,603.801 98.894,561.485 97.117,517.697C96.429,500.735 96.583,483.171 98.088,466.25C100.25,441.936 105.187,417.938 111.796,394.483C127.637,338.263 154.411,285.403 191.236,239.951L209.777,219.145C225.477,202.146 243.07,186.95 261.5,173.015C276.291,161.831 292.004,150.959 308.383,142.25C345.269,122.638 385.558,108.4 426.525,100.25C450.195,95.541 474.678,93.658 498.751,92.718Z" style="fill-rule:nonzero;"/>
    </g>
    <g transform="matrix(0.5,0,0,0.5,0,0)">
        <path d="M284.653,524.511L254.845,521.68L244.816,521.207C243.464,521.145 241.536,521.306 240.25,520.963C239.672,520.808 239.577,520.705 239.142,520.414L239.4,519.75C244.195,519.207 249.246,519.621 254.069,519.725L284.596,520.452L284.653,524.511Z" style="fill:url(#_Linear1);fill-rule:nonzero;"/>
    </g>
    <g transform="matrix(0.5,0,0,0.5,0,0)">
        <path d="M762.217,359.75C762.933,359.503 763.245,359.513 763.983,359.549C765.611,361.627 766.386,364.114 767.458,366.5L772.376,377.499C761.962,373.527 755.295,372.819 744.376,375.2L741.549,375.089C736.457,374.672 733.511,370.733 730.422,367.166C733.269,367.119 736.094,367.483 738.947,367.354C748.008,366.941 754.564,364.496 762.217,359.75Z" style="fill:white;fill-rule:nonzero;"/>
    </g>
    <g transform="matrix(0.5,0,0,0.5,0,0)">
        <path d="M548.686,464.25L549.312,464.299C550.822,467.994 549.989,474.457 550.082,478.5L550.699,530.548L475.25,530.02C473.761,529.638 473.553,529.629 472.537,528.5L472.908,527.75C478.595,526.512 486.285,527.277 492.175,527.225L547.392,527.003C548.09,522.93 547.93,518.758 547.956,514.637L548.005,495.718L548.686,464.25Z" style="fill:white;fill-rule:nonzero;"/>
    </g>
    <g transform="matrix(0.5,0,0,0.5,0,0)">
        <path d="M520.455,556.683C539.926,555.513 560.118,558.929 579.393,561.493L666.91,572.71C666.1,573.533 665.237,573.427 664.125,573.6L515.867,557.391L520.455,556.683Z" style="fill:white;fill-rule:nonzero;"/>
    </g>
    <g transform="matrix(0.5,0,0,0.5,0,0)">
        <path d="M516.234,366.588C520.115,366.56 523.531,366.632 527.394,367.222C530.335,374.95 530.727,385.442 529.516,393.578C528.77,398.597 525.46,403.988 521.311,406.929C519.345,408.322 516.481,409.188 514.07,408.675C507.939,407.372 503.775,400.563 500.402,395.804C498.063,391.119 494.358,386.749 492.476,381.968C491.638,379.839 491.036,377.165 492.153,375.028C493.042,373.327 494.231,372.346 496,371.7C497.263,372.746 497.052,376.433 497.252,378.227C497.587,381.217 498.143,385.036 499.44,387.75C500.147,389.227 500.761,389.376 502.25,389.962C502.583,389.823 503.008,389.813 503.25,389.544C503.843,388.888 503.825,386.908 503.867,386.072C504.017,383.071 503.918,379.454 505.206,376.687C507.674,371.384 510.71,368.394 516.234,366.588Z" style="fill:white;fill-rule:nonzero;"/>
    </g>
    <g transform="matrix(0.5,0,0,0.5,0,0)">
        <path d="M112.972,521.402L223.134,521.476C223.436,523.243 223.673,525.214 224.398,526.861C226.984,532.728 239.516,537.414 245.08,540.106C253.981,544.412 262.785,549.014 272.081,552.405C269.635,552.678 267.074,552.331 264.622,552.168C260.123,552.046 255.605,551.298 251.149,550.687C243.64,549.659 236.247,548.522 228.969,546.324C222.895,544.49 217.257,541.372 210.845,540.733C206.819,540.332 202.532,540.061 198.5,540.528C186.009,541.975 174.654,547.243 161.772,547.527C158.074,547.608 154.228,547.702 150.565,547.164C145.818,546.467 141.476,544.886 136.827,543.909C129.318,542.33 121.862,541.875 114.293,543.173C113.593,542.12 113.649,540.244 113.511,538.99C112.862,533.089 112.824,527.322 112.972,521.402Z" style="fill:white;fill-rule:nonzero;"/>
    </g>
    <g transform="matrix(0.5,0,0,0.5,0,0)">
        <path d="M801.447,583.159C809.162,582.761 814.545,586.155 821.506,588.605L837.033,593.368C852.713,597.43 868.212,596.56 883.776,592.51C890.329,590.805 897.093,588.565 902.926,585.061L903.559,584.676C903.836,588.079 902.086,592.682 901.154,596.026C899.357,602.47 898.151,608.567 895.208,614.628C892.279,614.088 889.305,612.19 886.464,611.158C879.937,608.788 871.619,607.704 864.828,609.386C860.711,610.406 856.726,612.439 852.875,614.177C850.497,615.294 848.084,616.566 845.475,617.006C840.77,617.799 836.043,618.868 831.285,619.277C823.543,619.943 815.435,619.559 807.654,619.351C789.366,618.862 771.753,617.546 753.867,613.406C748.803,612.233 743.775,611.253 738.877,609.473C741.85,608.043 744.941,607.194 748,606.002C750.578,604.998 753.034,603.686 755.668,602.823C759.658,601.515 764.363,600.847 768.511,600.28C772.203,599.776 776.011,599.829 779.733,599.748C781.803,599.703 784.555,600.02 786.213,598.584L786.62,598.196C787.886,596.876 788.244,595.005 788.066,593.23C787.923,591.808 787.148,590.429 785.939,589.644L785.279,589.25C787.61,586.244 792.089,585.17 795.633,584.301L801.447,583.159Z" style="fill:white;fill-rule:nonzero;"/>
    </g>
    <g transform="matrix(0.5,0,0,0.5,0,0)">
        <path d="M507.161,416.34C509.74,417.45 512.279,417.982 515.054,418.31C516.39,418.468 519.028,418.424 520.168,419.085C521.808,420.035 523.68,422.693 525,424.134C522.298,425.585 519.674,427.009 517.228,428.873C516.356,429.537 516.291,429.336 516.131,430.5C516.699,431.461 517.258,432.428 518.214,433.057C519.054,433.61 520.649,433.529 521.608,433.53C527.001,433.534 532.26,432.381 537.543,431.424C539.985,430.981 543.238,430.248 545.5,431.6C551.455,435.16 554.936,442.074 557.32,448.321C560.795,457.428 562.699,466.724 565.484,476C567.145,481.532 569.564,486.937 571.021,492.49C572.107,496.627 572.145,502.369 569.814,506.144C567.498,509.893 561.497,510.271 557.552,511.052L557.286,476.408C557.35,472.38 557.774,462.514 554.73,459.778C552.462,457.738 538.081,459.315 534.413,459.443L484.421,459.359C482.117,459.364 471.941,460.003 470.685,459.445C469.773,459.041 467.787,456.464 466.931,455.64C465.765,455.427 464.809,455.128 463.686,455.666C463.177,459.69 463.852,464.037 463.927,468.112L464.385,497.202L446.25,487.461L447.587,474.374C449.011,465.605 450.843,456.562 453.731,448.157C454.943,444.632 456.711,439.724 459.611,437.25C464.13,433.394 472.162,433.442 477.822,433.1L492.674,432.018C496.172,431.686 501.185,431.343 504.022,429.101C507.046,426.712 506.887,419.89 507.161,416.34Z" style="fill:white;fill-rule:nonzero;"/>
    </g>
    <g transform="matrix(0.5,0,0,0.5,0,0)">
        <path d="M285.805,317.056C293.141,323.524 300.22,329.441 308.981,333.963C317.688,338.456 326.257,342.113 335.889,344.121C352.271,347.536 371.757,345.049 386.964,338.048C396.965,333.443 406.352,327.312 416.88,324.022C423.467,321.963 431.281,321.1 438.125,322.151C447.073,323.524 455.446,328.185 463.256,332.508L487.076,345.676C471.557,343.401 457.65,337.039 441.473,339.557L440.624,339.694C432.279,341.378 425.22,343.196 417.994,347.894C414.873,349.923 412.041,352.332 408.838,354.253C394.621,362.777 379.923,366.757 363.592,362.841L346.001,357.75C319.281,351.065 292.077,350.415 266.844,362.957C264.412,364.166 262.488,365.953 260.25,367.445C257.939,368.987 255.3,370.21 252.906,371.663C259.157,358.566 265.888,346.164 273.675,333.943C277.506,327.929 280.907,322.307 285.805,317.056Z" style="fill:white;fill-rule:nonzero;"/>
    </g>
    <g transform="matrix(0.5,0,0,0.5,0,0)">
        <path d="M697.412,276.105C698.696,275.99 699.963,276.041 701.25,276.064C709.196,282.32 716.11,289.746 722.787,297.306C737.179,313.598 749.123,331.252 759.431,350.399C756.848,352.369 754.196,354.543 751.25,355.953C743.095,359.857 732.972,358.787 724.25,358.506C719.56,355.28 715.869,350.837 710.863,347.935C703.941,343.923 696.057,344.195 688.75,347.038C685.79,348.189 682.901,349.839 679.838,350.639C673.735,345.424 671.141,340.086 668.903,332.47C665.229,319.965 666.47,306.504 672.753,295.095C678.219,285.17 686.621,279.255 697.412,276.105Z" style="fill:white;fill-rule:nonzero;"/>
    </g>
    <g transform="matrix(0.5,0,0,0.5,0,0)">
        <path d="M909.816,536.25L910.899,536.344C911.151,539.44 910.253,542.896 909.864,546L905.749,575.077C900.918,576.718 896.386,579.039 891.597,580.756C879.411,585.126 865.721,587.938 852.75,586.988C845.582,586.463 838.346,584.592 831.5,582.474C823.18,579.9 815.262,575.44 806.461,574.678C799.551,574.081 791.464,575.807 785.121,578.556C783.363,579.318 780.755,580.947 778.958,581.267C778.291,581.386 776.863,581.015 776.175,580.89C774.349,580.56 772.38,580.244 770.647,579.572C768.709,578.82 766.849,577.488 764.75,577.272C759.793,576.762 754.802,577.538 749.695,576.913C729.505,574.439 709.64,569.965 689.663,566.227L656.034,560.896C651.499,560.162 640.576,559.339 637.488,556.25C637.575,555.98 637.576,555.664 637.75,555.439C638.351,554.661 646.208,554.98 667.745,557.611C680.979,559.228 694.744,562.28 708.105,560.782C720.182,559.428 730.44,554.687 741.95,551.479C750.32,549.147 759.049,548.346 767.694,547.843C774.373,547.455 781.221,547.415 787.875,548.252C798.187,549.55 808.189,552.245 818.379,554.136C850.337,560.067 882.274,553.292 909.816,536.25Z" style="fill:white;fill-rule:nonzero;"/>
    </g>
    <g transform="matrix(0.5,0,0,0.5,0,0)">
        <path d="M591.955,333.597C594.453,333.476 597.392,333.477 599.767,334.325C602.878,335.435 605.979,337.939 608.581,339.923C620.776,349.222 628.992,362.247 643.108,369.157C654.189,374.581 664.744,372.829 675,366.495C680.503,363.096 686.394,358.675 692.591,356.68C707.946,351.736 715.08,366.348 723.614,375.441C726.201,378.197 729.315,380.422 732.656,382.166L733.284,382.486C721.733,390.468 709.961,399.603 696.508,404.122C686.848,405.472 681.268,399.076 673.906,394.213C670.132,391.72 665.596,389.609 661.16,388.671C652.143,386.765 642.951,388.403 633.939,389.373C624.461,390.394 614.82,391.123 605.303,390.147C590.148,388.594 575.914,383.129 561.937,377.392C556.827,375.295 551.489,373.655 546.469,371.38C545.213,370.811 543.118,370.125 542.085,369.25C540.827,368.185 541.205,366.252 541.151,364.75C541.35,364.463 541.446,364.063 541.75,363.89C543.327,362.993 546.228,362.64 548.049,362.02C550.84,361.07 553.454,359.677 556.027,358.253C561.094,355.45 566.109,351.995 570.567,348.3C577.498,342.556 582.7,335.553 591.955,333.597Z" style="fill:white;fill-rule:nonzero;"/>
    </g>
    <g transform="matrix(0.5,0,0,0.5,0,0)">
        <path d="M540.497,381.078L560.997,389.136C581.431,397.224 600.928,403.431 623.275,401.615L643.28,399.476C648.178,398.957 653.553,398.367 658.429,399.333C669.055,401.439 675.709,411.587 685.806,414.867C689.75,416.148 694.131,415.841 698.104,414.871C709.041,412.201 720.31,404.402 729.5,398.079C737.689,392.445 746.512,384.029 757.072,384.458C762.958,384.698 772.605,387.413 776.502,392.14C779.263,395.489 790.768,437.583 790.39,442.468L789,443.105C783.329,442.412 778.976,438.798 774.698,435.296C766.998,428.567 758.333,421.163 748.564,417.75C736.371,413.49 722.115,418.575 711.321,424.426C700.072,430.523 688.904,438.168 675.348,436.177C663.557,434.444 652.715,427.731 642.75,421.562C635.617,417.146 628.394,412.315 619.968,410.843C597.337,406.889 582.753,424.609 566.07,436.437C562.774,431.604 559.173,427.206 554.35,423.8C548.316,419.539 543.546,418.694 536.32,419.877L528.613,413.597C530.514,411.82 532.638,409.941 534.104,407.783C539.537,399.779 539.924,390.387 540.497,381.078Z" style="fill:white;fill-rule:nonzero;"/>
    </g>
    <g transform="matrix(0.5,0,0,0.5,0,0)">
        <path d="M776.892,521.236L875.261,521.743L898.169,521.588C901.826,521.557 907.397,520.828 910.75,522.207L910.225,523.635C907.82,528.786 898.829,532.192 893.833,534.662C870.46,546.216 843.837,550.511 818.154,545.091C806.639,542.66 794.218,539.181 782.448,538.993C771.992,538.825 760.881,538.611 750.541,540.413C741.525,541.983 732.614,545.263 723.976,548.232C717.287,550.365 710.295,552.081 703.244,552.247C690.551,552.548 677.218,549.883 664.573,548.468L643,546.039C640.11,545.648 636.658,545.546 633.936,544.537C629.031,542.717 625.534,537.109 620.726,534.587C616.469,532.354 611.589,531.027 607.023,529.549L584.715,522.627C589.394,521.747 594.263,522.09 599.006,521.862L648.175,521.312L776.892,521.236Z" style="fill:white;fill-rule:nonzero;"/>
    </g>
    <g transform="matrix(0.5,0,0,0.5,0,0)">
        <path d="M200.779,549.142C204.835,548.812 209.79,549.123 213.705,550.242C216.73,551.107 219.465,552.662 222.401,553.75C225.918,555.053 229.867,556.051 233.548,556.75C244.985,558.922 256.517,560.941 268.141,561.699C274.915,562.141 282.971,560.553 289.413,562.133C292.927,562.995 296.254,564.73 299.648,565.987L319.224,573.024L354.927,584.174C366.021,587.438 376.813,590.716 388.171,593.009C385.173,594.247 378.94,594.113 375.469,594.502C345.046,597.916 313.101,600.922 282.618,597.11C268.201,595.448 253.809,592.562 239.75,588.983C224.462,585.092 209.601,579.928 193.867,577.859C179.644,575.99 162.692,577.506 148.958,581.508C139.538,584.252 131.099,589.377 121.959,592.903C119.168,580.336 115.576,566.379 115.138,553.503C119.618,548.809 127.874,550.874 133.516,551.989C139.003,553.074 144.332,554.804 149.845,555.783C159.851,557.562 170.696,556.522 180.546,554.206C187.315,552.615 193.882,550.159 200.779,549.142Z" style="fill:white;fill-rule:nonzero;"/>
    </g>
    <g transform="matrix(0.5,0,0,0.5,0,0)">
        <path d="M173.168,586.193C193.797,584.141 213.657,591.162 233.222,596.499C244.825,599.664 256.587,602.399 268.458,604.354C299.611,609.482 330.859,607.342 362.119,604.87L387.36,602.185C392.608,601.438 397.478,601.105 402.206,598.484C403.824,597.587 438.464,605.627 443.022,606.408L558.491,624.096C540.706,631.633 520.459,628.91 501.598,628.355C479.32,627.078 457.575,625.82 435.234,627.199L388.281,631.495L356.621,635.23C328.791,637.591 299.568,637.271 271.851,633.835C259.37,632.288 246.769,630.36 234.695,626.741C231.754,625.859 229.025,624.454 226.148,623.408C212.392,618.409 198.576,617.107 184.053,617.163C166.187,617.231 148.935,619.42 132.547,626.992C131.593,624.798 131.249,622.177 130.572,619.863C128.87,614.055 127.053,608.566 126.314,602.529C138.266,592.407 157.894,587.805 173.168,586.193Z" style="fill:white;fill-rule:nonzero;"/>
    </g>
    <g transform="matrix(0.5,0,0,0.5,0,0)">
        <path d="M251.418,529.969L757.723,586.881L758.457,586.885L740.003,596.472C733.192,599.963 725.501,602.265 718.192,604.495C685.104,614.587 650.419,617.282 615.947,616.553C589.414,615.992 563.262,611.66 537.034,608.105L461.803,596.084L418.027,587.821C385.289,580.395 352.732,570.695 321.081,559.533C297.146,551.093 273.854,541.907 251.418,529.969Z" style="fill:white;fill-rule:nonzero;"/>
    </g>
    <g transform="matrix(0.5,0,0,0.5,0,0)">
        <path d="M607.758,421.12C621.263,419.446 630.503,427.146 641.284,433.718C653.931,441.429 666.861,448.379 682.123,447.403C692.462,446.742 701.947,442.387 710.81,437.285C717.317,433.538 724.409,428.798 731.951,427.526L732.75,427.403C736.107,426.856 740.279,426.623 743.609,427.475C746.341,428.174 748.987,429.84 751.377,431.313C760.199,436.752 766.951,445.264 775.896,450.228C778.941,451.918 782.398,453.453 785.811,454.125C788.051,454.566 790.404,454.528 792.597,455.155C795.116,472.249 796.112,488.892 796.024,506.163L778.125,506.094L581.775,506.424C585.28,496.531 582.046,487.836 579.323,478.282C576.466,468.259 572.791,458.28 570.431,448.151C583.682,440.849 591.61,426.529 606.499,421.527L607.758,421.12Z" style="fill:white;fill-rule:nonzero;"/>
    </g>
    <g transform="matrix(0.5,0,0,0.5,0,0)">
        <path d="M878.076,661.25L878.853,661.523C877.734,667.85 873.817,675.059 870.923,680.857L864.268,693.268C862.848,696.011 861.513,699.595 859.393,701.856C856.353,705.096 850.501,707.109 846.482,708.997C840.929,711.605 835.399,714.455 829.26,715.418C814.592,717.718 798.835,710.904 784.808,707.352C777.972,705.621 770.732,704.382 763.711,703.728C748.462,702.307 732.672,704.069 717.924,708.058C714.594,708.959 711.47,710.371 708.196,711.423C691.926,716.652 677.26,708.198 661.881,704.406C654.943,702.695 647.008,702.075 639.868,702.21C629.221,702.412 618.822,707.002 608.189,707.976C595.659,709.124 583.345,706.031 570.724,707.651C560.894,708.912 552.116,712.939 542,713.037C510.635,713.339 479.962,708.89 448.755,706.894L391.919,706.049L359.175,706.381L304.187,709.282L278.674,712.14C269.611,713.321 260.963,714.619 251.75,713.821C240.033,712.806 229.404,708.549 219.188,702.921C213.028,699.528 207.253,695.575 200.92,692.435C188.665,686.357 173.127,688.734 160.75,692.952C160.078,692.969 159.655,692.898 159.01,692.75C154.848,685.959 151.723,678.372 148.487,671.1C160.924,669.367 173.674,666.511 186.276,667.33C192.99,667.767 199.616,669.866 206.143,671.377C227.874,676.408 248.811,682.979 271.373,683.087C296.652,683.208 321.323,680.087 346.437,677.833L424.397,674.042C443.139,674.013 461.817,674.616 480.466,676.579L502.25,678.994C513.814,680.653 524.642,682.289 536.389,681.365C555.259,679.879 572.867,671.557 590.849,666.471C599.088,664.141 608.185,662.775 616.75,662.494C622.029,662.321 627.251,662.415 632.453,663.415C641.238,665.104 649.606,668.58 658.243,670.869C666.413,673.034 674.841,674.269 683.256,675.012C702.636,676.722 718.947,666.409 737.755,665.656C750.861,665.132 763.799,670.613 776.666,672.425C804.016,676.275 832.131,674.577 858.874,667.581C865.173,665.933 870.96,663.046 877.228,661.461L878.076,661.25Z" style="fill:white;fill-rule:nonzero;"/>
    </g>
    <g transform="matrix(0.5,0,0,0.5,0,0)">
        <path d="M724.451,616.098C728.953,615.227 734.786,618.56 739.388,619.511C755.004,622.74 770.605,625.944 786.545,627.019C805.945,628.327 827.672,630.425 846.634,625.79C854.686,623.822 862.506,617.748 870.75,617.347C878.869,616.951 886.346,619.668 892.422,624.94C891.485,630.237 888.992,635.38 887.25,640.448C886.105,643.78 885.399,647.234 883.603,650.299C880.663,651.894 876.675,652.411 873.46,653.558C844.815,663.773 812.888,668.487 782.562,664.074C773.644,662.775 765.102,660.253 756.272,658.64C749.04,657.318 741.682,656.797 734.338,657.033C722.803,657.403 712.116,662.191 700.969,664.688C694.521,666.131 686.557,666.356 679.956,665.788C665.26,664.525 652.259,658.673 638.125,655.497C630.533,653.792 622.681,653.439 614.918,653.593C598.245,653.924 581.974,659.716 566.348,664.942C555.651,668.52 545.398,671.973 534.046,672.582C521.102,673.277 508.467,671.025 495.681,669.515L451.501,665.755C422.693,664.607 393.404,665.175 364.658,667.347L310.38,672.623C283.264,675.383 257.67,674.721 231.123,668.293C216.073,664.649 200.9,659.239 185.347,658.421C171.892,657.713 158.254,660.453 145.052,662.782C141.793,653.7 137.381,644.949 135.514,635.445C151.847,627.916 168.353,625.618 186.223,625.791C196.999,625.896 207.721,626.403 217.967,630.049C223.386,631.978 228.81,634.639 234.353,636.119C249.733,640.227 265.742,643.037 281.628,644.05C311.063,645.928 340.121,645.663 369.5,642.965L395,639.669L446.384,635.467C461.523,634.845 476.559,635.362 491.673,636.289C505.744,637.153 519.945,638.431 534.046,637.747C544.571,637.236 560.737,636.364 568.139,627.491C569.212,626.205 574.624,626.998 576.578,627.108L610.53,629.382C634.811,630.245 659.743,629.294 683.729,625.339C697.572,623.056 710.906,619.662 724.451,616.098Z" style="fill:white;fill-rule:nonzero;"/>
    </g>
    <g transform="matrix(0.5,0,0,0.5,0,0)">
        <path d="M284.596,520.452L320.089,521.134L429.99,523.172C438.192,523.565 446.179,525.268 454.319,525.826C456.018,525.942 458.341,525.865 459.681,524.654C460.423,523.984 460.438,523.202 460.396,522.25C460.321,520.523 459.893,518.087 459.156,516.562C425.485,505.709 389.847,506.428 354.856,506.45L283.118,506.427C264.591,506.525 245.748,507.2 227.262,505.974C226.566,492.04 226.394,477.485 227.669,463.584C229.325,445.536 233.278,427.637 238.504,410.312C240.666,403.142 242.841,394.036 248.011,388.391C250.544,385.624 254.566,383.398 257.667,381.256C273.374,370.405 289.526,363.649 308.854,363.416C317.232,363.315 326.834,364.203 334.967,366.174C343.229,368.177 351.134,371.484 359.365,373.483C366.123,375.125 372.937,375.717 379.88,375.394C393.323,374.768 404.302,369.51 415.399,362.248C419.319,359.683 423.262,356.63 427.505,354.64C436.255,350.538 445.724,349.319 455.319,350.163C468.191,351.296 481.07,356.206 493.609,359.34C493.2,359.982 492.706,360.168 492.073,360.591C487.073,363.934 481.572,369.436 480.331,375.483C479.03,381.821 484.876,390.997 488.48,396.094C490.427,398.846 492.558,401.419 494.748,403.979C495.876,405.297 497.81,407.156 498.398,408.786C498.635,409.441 498.438,411.045 498.447,411.798C498.485,415.088 498.379,418.238 497.922,421.504C488.359,421.455 478.808,421.267 469.278,422.187C462.342,422.856 455.745,423.6 450.5,428.75C448.634,430.583 447.119,432.861 446.05,435.25C443.222,441.568 441.931,449.221 440.36,455.942C438.418,464.254 435.384,472.819 435.532,481.466C435.614,486.273 436.196,492.096 439.688,495.695C441.434,497.494 444.24,498.44 446.5,499.418L459.464,504.782C460.119,505.032 463.609,506.189 463.839,506.508C464.464,507.378 464.46,514.815 464.519,516.25C464.695,520.545 464.316,524.933 465.144,529.168C458.312,528.151 452.839,527.546 445.924,528.474C444.623,528.649 444.012,528.789 443.022,529.75C442.777,531.411 442.667,531.628 443.395,533.114C444.316,533.707 445.292,534.326 446.381,534.539C450.294,535.304 454.751,534.708 458.782,535.138C463.689,535.662 468.501,537.196 473.437,537.432L524.038,537.577L544.956,537.604C548.579,537.6 552.725,537.989 556.25,537.243C558.071,536.858 558.846,536.149 560.02,534.75C560.872,532.528 560.02,530.399 559.877,528.119C564.673,528.638 569.342,530.257 573.982,531.529L599.824,539.213C604.497,540.686 609.954,541.81 614.317,543.986C617.341,545.494 619.892,547.862 622.371,550.118C622.776,551.364 623.036,552.436 623.186,553.75L624.75,554.585L625.127,556.25L624.5,556.884C604.73,555.137 584.91,551.37 565.31,548.232C554.594,546.515 543.666,544.624 532.819,544.083C527.212,543.802 521.281,545.7 515.771,546.686C504.961,548.622 493.142,549.306 482.23,547.863L481.577,547.081C479.896,545.142 476.238,542.062 473.603,542.038C472.462,542.027 472.358,542.352 471.489,543C471.4,544.52 471.612,545.349 472.105,546.75L471.5,547.395C465.895,547.396 460.482,546.437 454.936,545.74L430.222,542.592L361.118,533.076L305.828,526.686L284.653,524.511L284.596,520.452Z" style="fill:white;fill-rule:nonzero;"/>
    </g>
    <g transform="matrix(0.5,0,0,0.5,0,0)">
        <path d="M500.865,205.291C514.572,204.301 529.314,204.904 543,206.313C576.27,209.739 607.78,218.673 637.889,233.161C650.658,239.305 663.023,246.008 674.528,254.337C680.576,258.715 687.014,262.634 691.74,268.479C687.785,270.546 683.178,272.366 679.659,275.092C668.492,283.741 660.88,295.278 659.012,309.443C656.881,325.597 660.97,342.645 671.02,355.599L671.401,356.076C669.541,357.187 667.667,358.336 665.638,359.116C661.816,360.586 657.376,361.577 653.281,360.847C648.841,360.054 644.65,356.967 641.151,354.288C628.857,344.872 619.429,330.719 605,324.332C598.27,321.353 589.216,321.422 582.644,324.925C577.585,327.621 573.73,331.487 569.29,334.999C562.83,340.11 555.946,345.42 548.185,348.412C537.832,352.403 525.549,352.146 515.377,347.737C499.732,341.359 485.726,331.473 471.103,323.12C463.183,318.595 455.176,314.042 446.27,311.75C434.705,308.774 422.959,309.639 411.688,313.322C405.007,315.506 398.739,319.309 392.489,322.483C383.407,327.097 373.296,330.745 363.266,332.539C350.811,334.766 339.01,332.982 327.105,329.273C321.738,327.601 315.87,325.387 311.256,322.174C304.643,317.568 298.828,313.452 292.991,307.816C294.52,303.297 300.891,297.524 304.133,293.977C354.152,239.242 427.369,208.695 500.865,205.291Z" style="fill:white;fill-rule:nonzero;"/>
    </g>
    <g transform="matrix(0.5,0,0,0.5,0,0)">
        <path d="M179.231,697.655C192.187,695.476 201.702,702.925 211.916,709.25C216.247,711.932 220.862,714.414 225.504,716.514C235.233,720.917 245.886,723.242 256.547,723.487C271.546,723.831 286.151,719.554 301.037,718.256L388.771,714.985C411.498,714.804 434.602,714.47 457.266,716.155L499.043,720.409C512.489,721.537 525.992,721.884 539.479,721.56C543.966,721.452 548.684,721.359 553.107,720.559C560.175,719.281 566.809,716.998 574.012,716.118C585.015,714.774 595.999,717.393 606.95,716.863C615.384,716.455 622.964,713.856 631.139,712.179C648.417,708.636 663.692,714.491 679.844,719.435C688.102,721.962 698.019,723.03 706.492,721.122C713.658,719.508 720.473,716.463 727.588,714.659C733.677,713.115 740.354,712.613 746.612,712.178C756.919,711.462 767.836,712.345 777.879,714.733C794.097,718.591 810.729,726.537 827.676,724.958C835.644,724.216 844.391,720.622 851.38,716.891C843.888,728.496 836.233,740.335 827.863,751.32C812.992,770.837 795.764,789.242 777.364,805.482C771.727,810.83 765.693,815.502 759.61,820.303C745.722,831.263 730.803,841.571 715.341,850.203L676.816,869.25C671.406,871.785 665.752,873.627 660.157,875.695L631.793,885.317C621.971,888.165 612.016,891.054 601.992,893.11L573.5,897.662C505.241,908.039 434.254,903.188 369.165,879.304C322.03,862.008 277.162,836.152 240.214,801.964C220.141,783.391 202.74,762.638 187.375,740.049C178.715,727.318 170.106,714.688 163.61,700.668L179.231,697.655Z" style="fill:white;fill-rule:nonzero;"/>
    </g>
    <g transform="matrix(0.5,0,0,0.5,0,0)">
        <path d="M498.838,107.226L520.25,107.013C622.31,108.488 722.846,147.775 794.513,221.285L810.479,237.973C874.989,311.76 911.807,408.343 910.607,506.482L811.946,506.417C810.371,487.743 810.34,469.133 807.733,450.494C798.992,388.001 771.821,328.477 728.9,282.117C714.173,266.211 697.034,251.105 679.155,238.831C663.835,228.315 646.7,219.729 629.512,212.753C594.931,198.719 559.484,191.28 522.158,189.844L478.547,191.444C440.114,195.209 400.277,208.048 366.489,226.744C353.013,234.201 340.48,242.994 328.203,252.249C312.933,263.761 298.102,276.661 285.957,291.51C243.312,343.653 213.788,408.569 211.439,476.585C211.11,486.107 210.745,496.171 211.763,505.643L211.832,506.234L111.542,506.419C111.589,488.754 112.268,471.239 114.58,453.711C125.394,371.718 162.913,290.595 219.622,230.25C253.066,194.662 292.39,165.183 336.642,144.397C344.034,140.925 351.864,138.068 359.491,135.136C403.861,118.081 451.374,108.938 498.838,107.226Z" style="fill:white;fill-rule:nonzero;"/>
    </g>
    <g transform="matrix(3.04608,0,0,3.04608,-314.027,-771.598)">
        <text x="150.607px" y="387.09px" style="font-family:'Barrio-Regular', 'Barrio';font-size:12px;">TobIaS kRafT</text>
    </g>
    <defs>
        <linearGradient id="_Linear1" x1="0" y1="0" x2="1" y2="0" gradientUnits="userSpaceOnUse" gradientTransform="matrix(-13.5154,13.0359,-13.0359,-13.5154,273.008,515.232)"><stop offset="0" style="stop-color:rgb(215,214,227);stop-opacity:1"/><stop offset="1" style="stop-color:white;stop-opacity:1"/></linearGradient>
    </defs>
</svg>
